<svg fill="#000000" xmlns="http://www.w3.org/2000/svg"  viewBox="0 0 50 50" width="50px" height="50px"><path d="M46.711,15.214C46.899,14.815,47,14.376,47,13.929C47,12.314,45.744,11,44.2,11c-0.148,0-0.313,0.035-0.48,0.071C40.88,5.191,33.579,1,25,1S9.12,5.191,6.28,11.071C6.113,11.035,5.948,11,5.8,11C4.256,11,3,12.314,3,13.929c0,0.448,0.101,0.887,0.289,1.286C3.101,15.613,3,16.052,3,16.5s0.101,0.887,0.289,1.286C3.101,18.185,3,18.624,3,19.071c0,1.366,0.902,2.506,2.113,2.829C5.042,22.257,5,22.623,5,23c0,1.776,0.814,3.369,2.106,4.467c0.208,0.177,0.646,0.896,0.971,1.551C8.031,29.34,8,29.666,8,30c0,1.62,0.556,3.107,1.479,4.293c1.63,5.329,3.828,6.9,4.994,7.707c1.603,1.109,3.158,1.548,3.158,3c0,1.65,2.632,3,4.368,3h1.947H28c1.737,0,4.368-1.35,4.368-3c0-1.452,1.555-1.891,3.158-3c1.166-0.807,3.364-2.378,4.994-7.707C41.444,33.107,42,31.62,42,30c0-0.334-0.031-0.66-0.077-0.982c0.325-0.655,0.764-1.375,0.971-1.552C44.186,26.369,45,24.776,45,23c0-0.377-0.042-0.743-0.113-1.1C46.098,21.578,47,20.437,47,19.071c0-0.448-0.101-0.887-0.289-1.286C46.899,17.387,47,16.948,47,16.5S46.899,15.613,46.711,15.214z M8.768,17.143C8.874,17.27,9,17.483,9,17.786c0,0.403-0.224,0.759-0.555,0.884c-0.06,0.022-0.253,0.123-0.521,0.283C6.517,19.793,5.987,19.986,5.8,20C5.358,20,5,19.583,5,19.071c0-0.302,0.126-0.516,0.232-0.643l0.54-0.643l-0.54-0.643C5.126,17.016,5,16.802,5,16.5s0.126-0.516,0.232-0.643l0.54-0.643l-0.54-0.643C5.126,14.445,5,14.231,5,13.929C5,13.417,5.358,13,5.792,13c0.195,0.014,0.725,0.207,2.134,1.047c0.269,0.16,0.461,0.261,0.521,0.283C8.777,14.456,9,14.811,9,15.214c0,0.302-0.126,0.516-0.232,0.643L8.228,16.5L8.768,17.143z M27.439,13.439C27.805,13.074,29.563,10,33,10c1.309,0,2.683,0.377,3.998,1.518c0.69,0.599,0.629,1.594-0.001,1.287C35.883,12.261,34.886,12,34,12c-2.688,0-4.027,3.149-4.439,3.561c-0.586,0.586-1.536,0.586-2.121,0C26.854,14.975,26.854,14.025,27.439,13.439z M36,19.866c0,1.996-1.899,0.732-3.403,0.732c-1.503,0-3.597,1.144-3.597-0.399s1.997-3.193,3.5-3.193S36,17.854,36,19.866z M13.002,11.518C14.317,10.377,15.691,10,17,10c3.438,0,5.195,3.074,5.561,3.439c0.586,0.586,0.586,1.536,0,2.121c-0.586,0.586-1.536,0.586-2.121,0C20.027,15.149,18.688,12,16,12c-0.886,0-1.883,0.261-2.997,0.804C12.373,13.111,12.312,12.116,13.002,11.518z M21,20.198c0,1.543-2.094,0.399-3.597,0.399c-1.503,0-3.403,1.264-3.403-0.732c0-2.012,1.997-2.86,3.5-2.86S21,18.655,21,20.198z M35.699,35.387C33.865,35.985,32.947,36,29.412,36c0,0-8.823,0-8.823,0c-3.535,0-4.453-0.015-6.287-0.613C11.96,34.624,10,32.732,10,29.97c0-2.401,2.138-4.97,4.412-4.97c-0.923,0.598-1.765,1.545-1.765,2.47c0,1.933,1.383,3.5,3.088,3.5c1.34,0,3.608-3.944,5.26-3.971c0.402,0.619,1.043,1.025,1.773,1.025c0.119,0,0.382,0.102,0.441,0.177c0.262,1.049,3.319,1.049,3.581,0c0.059-0.075,0.322-0.177,0.441-0.177c0.73,0,1.371-0.406,1.773-1.025c1.652,0.026,3.92,3.971,5.26,3.971c1.706,0,3.088-1.567,3.088-3.5c0-0.925-0.639-1.784-1.765-2.47C37.794,25,40,27.569,40,29.97C40,32.732,38.04,34.624,35.699,35.387z M44.768,15.857C44.874,15.984,45,16.198,45,16.5s-0.126,0.516-0.232,0.643l-0.54,0.643l0.54,0.643C44.874,18.555,45,18.769,45,19.071C45,19.583,44.642,20,44.208,20c-0.195-0.014-0.725-0.207-2.133-1.047c-0.268-0.16-0.461-0.26-0.52-0.283C41.224,18.544,41,18.189,41,17.786c0-0.302,0.126-0.516,0.232-0.643l0.54-0.643l-0.54-0.643C41.126,15.73,41,15.517,41,15.214c0-0.403,0.223-0.759,0.554-0.884c0.06-0.022,0.252-0.124,0.521-0.283c1.409-0.841,1.938-1.034,2.126-1.047c0.441,0,0.8,0.417,0.8,0.929c0,0.302-0.126,0.516-0.232,0.643l-0.54,0.643L44.768,15.857z"/></svg>